<svg xmlns="http://www.w3.org/2000/svg" xmlns:xlink="http://www.w3.org/1999/xlink" version="1.1" id="Шар_1" x="0px" y="0px" viewBox="-774 1203.6 111 17" style="enable-background:new -774 1203.6 111 17;" xml:space="preserve">
<style type="text/css">
	.st0{fill:#000000;}
	.st1{fill:#E70000;}
</style>
<path class="st0" d="M-698.3,1203.6c-4.3,0-7.7,3.6-7.7,8c0,4.4,3.5,8,7.7,8c4.3,0,7.7-3.6,7.7-8  C-690.5,1207.2-694,1203.6-698.3,1203.6z M-698.3,1217.2c-3,0-5.3-2.5-5.3-5.5c0-3,2.4-5.5,5.3-5.5c2.9,0,5.3,2.5,5.3,5.5  C-693,1214.7-695.3,1217.2-698.3,1217.2z"/>
<path class="st0" d="M-671.3,1206.5v3.9h6.5v2.5h-6.5v3.8h7.4v2.5h-9.8V1204h9.8v2.5H-671.3z"/>
<path class="st0" d="M-676.7,1204v15.3h-2.3l-6.7-10.4v10.4h-2.4V1204h2.2l0.3,0.4l6.5,9.9V1204H-676.7z"/>
<path class="st0" d="M-707.2,1204v2.5h-4.7v12.7h-2.4v-12.7h-4.7v-2.5H-707.2z"/>
<path class="st0" d="M-720.1,1215.1c0,1.4-0.7,2.6-1.7,3.4c-1,0.8-2.3,1.2-3.7,1.2c-0.1,0-0.2,0-0.3,0c-1.5-0.1-2.8-0.6-3.8-1.5  c-0.8-0.8-1.4-1.9-1.5-3.1v-0.1v-1h2.4l0.1,0.8c0.1,0.6,0.4,1.1,0.8,1.5c0.5,0.5,1.3,0.8,2.3,0.8c1,0,1.8-0.2,2.3-0.6  c0.5-0.4,0.8-0.9,0.8-1.5v0c0-0.6-0.2-1.1-0.9-1.6c-0.6-0.4-1.5-0.7-2.2-0.9c0,0-0.1,0-0.1-0.1l-0.4-0.1l-0.3-0.1  c-0.7-0.2-1.7-0.6-2.6-1.2c-1.1-0.8-1.7-1.8-1.6-3.2c0-1.3,0.6-2.5,1.7-3.2c1-0.7,2.3-1.1,3.7-1c2.2,0.1,4.1,1.3,4.9,3.3v0l0.2,0.8  l-2.3,0.7l-0.2-0.6c-0.4-1-1.4-1.6-2.7-1.7c-1,0-1.7,0.2-2.2,0.5c-0.5,0.4-0.7,0.8-0.7,1.4c0,0.2,0,0.4,0.1,0.6  c0.1,0.2,0.3,0.4,0.6,0.6c0.6,0.4,1.5,0.7,2.4,0.9l0.2,0.1h0c0,0,0.1,0,0.1,0c0.8,0.3,2,0.6,2.9,1.3  C-720.7,1212.3-720.1,1213.6-720.1,1215.1z"/>
<path class="st0" d="M-740.5,1204h-4.8v15.3h4.8c4.1,0,7.4-3.4,7.4-7.6C-733.1,1207.5-736.4,1204-740.5,1204z M-740.5,1216.8h-2.4  v-10.2h2.4c2.8,0,5,2.3,5,5.1C-735.5,1214.5-737.8,1216.8-740.5,1216.8z"/>
<path class="st0" d="M-755.6,1206.5v3.9h6.5v2.5h-6.5v3.8h7.4v2.5h-9.8V1204h9.8v2.5H-755.6z"/>
<path class="st0" d="M-760.6,1219.3h-2.9l-3.1-5.3h-3.9l-1.4-2.5h6c1.3,0,2.4-1.1,2.4-2.5c0-1.4-1.1-2.5-2.4-2.5h-6.6l-1.4-2.5h8  c2.6,0,4.7,2.2,4.7,4.9c0,2-1.1,3.7-2.8,4.5L-760.6,1219.3z"/>
<path class="st1" d="M-773.5,1216.2h2.9v2.2v0.8h-2.9V1216.2z"/>
</svg>