<svg width="124" height="115" viewBox="0 0 124 115" fill="none" xmlns="http://www.w3.org/2000/svg">
<g clip-path="url(#clip0)">
<path fill-rule="evenodd" clip-rule="evenodd" d="M4.70039 97.4001C2.80039 97.4001 2.00039 97.7001 1.40039 98.1001C0.800391 98.5001 0.500391 99.1001 0.400391 99.9001C0.400391 100.6 0.700391 101.4 2.50039 102.5C4.20039 103.5 7.40039 104.8 9.60039 105.7C11.8004 106.6 13.2004 107.1 15.8004 107.5C18.4004 108 22.2004 108.5 25.5004 108.7C28.8004 108.9 31.6004 108.9 35.3004 109.1C39.0004 109.2 43.5004 109.6 48.1004 109.7C52.8004 109.9 57.6004 109.9 60.0004 109.9C62.4004 109.9 62.4004 109.9 63.8004 110.7C65.2004 111.5 68.1004 113.1 69.7004 113.8C71.3004 114.6 71.7004 114.5 72.3004 114.1C73.0004 113.7 73.9004 113.1 74.4004 112.6C74.9004 112.1 74.8004 111.6 74.9004 111.3C74.9004 111 75.1004 110.7 75.5004 110.4C76.0004 110.1 76.8004 109.7 77.6004 109.5C78.4004 109.4 79.1004 109.5 79.8004 109.9C80.6004 110.3 81.3004 110.8 82.1004 111.3C82.9004 111.8 83.7004 112.2 84.4004 112.2C85.1004 112.2 85.6004 111.8 86.1004 111.2C86.6004 110.6 87.1004 109.8 88.0004 109.3C88.9004 108.9 90.2004 108.9 92.3004 108.8C94.4004 108.7 97.2004 108.5 100.1 108.2C102.9 107.8 105.7 107.3 107.7 106.8C109.7 106.3 110.8 105.8 112.3 105.4C113.8 105 115.5 104.8 117.3 104.2C119.1 103.6 120.9 102.8 121.9 102C122.9 101.2 123.2 100.6 123.1 100C123.1 99.4001 122.7 98.8001 122.3 98.3001C121.8 97.8001 121.3 97.4001 120.3 97.5001C119.4 97.7001 118.1 98.5001 116 99.5001C113.8 100.5 110.8 101.8 103.6 102.1C96.4004 102.4 85.1004 101.8 74.5004 101.7C64.0004 101.6 54.2004 102.1 46.9004 102.2C39.6004 102.3 34.7004 102.1 29.3004 101.2C23.9004 100.4 18.0004 99.0001 13.6004 98.2001C9.50039 97.5001 6.60039 97.3001 4.70039 97.4001Z" fill="#878786"/>
<path fill-rule="evenodd" clip-rule="evenodd" d="M96.5001 21.4003C95.9001 21.2003 95.2001 20.1003 94.1001 19.1003C93.1001 18.1003 91.6001 17.1003 90.8001 16.3003C89.9001 15.5003 89.6001 14.9003 89.0001 13.9003C88.4001 12.9003 87.6001 11.7003 86.6001 10.5003C85.6001 9.40031 84.5001 8.40031 83.1001 7.70031C81.7001 7.00031 80.0001 6.70031 78.7001 6.60031C77.4001 6.50031 76.6001 6.60031 76.0001 6.30031C75.4001 6.10031 74.9001 5.60031 74.1001 4.80031C73.3001 4.00031 72.1001 3.00031 71.1001 2.40031C70.1001 1.80031 69.1001 1.50031 68.0001 1.50031C66.8001 1.50031 65.5001 1.70031 64.3001 2.00031C63.2001 2.30031 62.3001 2.80031 61.7001 2.90031C61.2001 3.00031 61.0001 2.80031 60.2001 2.40031C59.3001 2.00031 57.8001 1.50031 56.3001 1.40031C54.8001 1.30031 53.2001 1.70031 51.9001 2.10031C50.6001 2.50031 49.7001 3.00031 48.9001 3.60031C48.1001 4.30031 47.3001 5.20031 46.2001 5.70031C45.1001 6.20031 43.7001 6.20031 42.2001 6.50031C40.7001 6.80031 39.0001 7.20031 37.8001 7.70031C36.6001 8.20031 35.7001 8.70031 35.1001 9.20031C34.4001 9.70031 34.0001 10.2003 33.6001 11.1003C33.3001 12.0003 33.1001 13.4003 32.5001 14.5003C32.0001 15.6003 31.2001 16.4003 30.0001 17.6003C28.8001 18.7003 27.3001 20.2003 26.1001 20.7003C24.9001 21.2003 24.1001 20.8003 23.5001 20.6003C22.8001 20.4003 22.3001 20.4003 21.9001 21.1003C21.5001 21.8003 21.1001 23.2003 20.9001 24.7003C20.7001 26.2003 20.6001 27.8003 20.7001 29.2003C20.8001 30.7003 21.0001 32.1003 21.3001 33.9003C21.6001 35.7003 22.0001 37.7003 22.6001 39.7003C23.2001 41.7003 23.9001 43.6003 24.4001 45.4003C24.9001 47.1003 25.1001 48.7003 25.2001 49.9003C25.4001 51.1003 25.5001 52.1003 25.3001 53.3003C25.1001 54.5003 24.7001 55.9003 24.4001 58.5003C24.1001 61.1003 24.0001 64.8003 23.6001 68.2003C23.2001 71.5003 22.4001 74.4003 21.8001 77.3003C21.2001 80.2003 20.8001 83.1003 20.2001 85.4003C19.6001 87.7003 18.7001 89.3003 17.8001 90.1003C16.9001 90.8003 16.0001 90.6003 14.7001 90.5003C13.4001 90.4003 11.7001 90.4003 10.2001 90.6003C8.70015 90.8003 7.50015 91.1003 6.30015 91.4003C5.20015 91.7003 4.10015 92.0003 3.20015 92.6003C2.40015 93.1003 1.70015 93.8003 1.50015 94.6003C1.30015 95.4003 1.60015 96.2003 2.10015 97.1003C2.60015 97.9003 3.50015 98.8003 4.50015 99.5003C5.50015 100.3 6.80015 100.9 8.30015 101.8C9.80015 102.6 11.6001 103.6 14.8001 104.4C18.0001 105.2 22.7001 105.7 27.2001 106C31.7001 106.2 36.0001 106.1 38.8001 105.8C41.6001 105.5 43.0001 104.9 44.5001 104.6C46.0001 104.3 47.7001 104.2 49.6001 104.3C51.5001 104.4 53.7001 104.7 55.8001 104.9C57.9001 105.1 59.9001 105.1 61.9001 105.3C63.9001 105.5 65.9001 106 67.7001 106C69.5001 106 71.0001 105.6 72.7001 105.3C74.5001 105.1 76.6001 105.1 78.8001 105.2C81.0001 105.3 83.3001 105.6 87.4001 105.9C91.5001 106.2 97.4001 106.5 101.2 106.4C105 106.2 106.8 105.5 108.2 104.8C109.6 104.1 110.6 103.5 111.6 103C112.6 102.5 113.5 102.2 114.7 101.5C116 100.8 117.6 99.7003 118.8 98.5003C120.1 97.4003 121 96.3003 121.2 95.5003C121.5 94.7003 121.1 94.1003 120.2 93.6003C119.4 93.1003 118.1 92.6003 116.7 92.2003C115.2 91.7003 113.6 91.3003 111.9 91.1003C110.2 90.9003 108.5 90.8003 107.2 90.8003C105.9 90.8003 105 90.8003 104.2 90.1003C103.5 89.4003 102.9 87.9003 102.4 86.2003C101.9 84.5003 101.6 82.7003 101.2 80.9003C100.8 79.2003 100.4 77.6003 100 74.6003C99.7001 71.6003 99.4001 67.4003 99.2001 64.7003C98.9001 62.1003 98.7001 61.2003 98.4001 59.9003C98.1001 58.7003 97.9001 57.2003 97.8001 54.6003C97.7001 52.0003 97.9001 48.3003 98.6001 45.0003C99.3001 41.7003 100.5 38.7003 101.3 36.3003C102.1 34.0003 102.5 32.3003 102.5 30.4003C102.6 28.5003 102.4 26.4003 102 24.8003C101.6 23.2003 101.1 22.0003 100.6 21.3003C100.1 20.6003 99.7001 20.3003 99.4001 20.3003C99.0001 20.3003 98.7001 20.6003 98.2001 21.0003C97.7001 21.0003 97.1001 21.6003 96.5001 21.4003Z" fill="#ED694A"/>
<path fill-rule="evenodd" clip-rule="evenodd" d="M59.7008 104.5C57.8008 104.3 56.1008 104.7 54.2008 104.6C52.3008 104.5 50.1008 103.8 48.7008 103C47.3008 102.2 46.5008 101.4 45.7008 100.9C44.9008 100.3 44.1008 100.1 43.0008 99.6998C41.9008 99.2998 40.6008 98.7998 39.4008 98.1998C38.2008 97.5998 37.0008 96.9998 36.3008 95.8998C35.5008 94.7998 35.1008 93.0998 34.5008 92.1998C33.8008 91.1998 33.0008 90.9998 32.0008 90.0998C30.9008 89.1998 29.6008 87.5998 28.8008 85.8998C28.0008 84.0998 27.6008 82.1998 27.7008 79.9998C27.8008 77.8998 28.4008 75.5998 28.6008 72.4998C28.7008 69.3998 28.3008 65.3998 28.2008 62.8998C28.0008 60.3998 28.0008 59.3998 28.1008 58.3998C28.2008 57.3998 28.3008 56.3998 28.7008 55.6998C29.2008 54.8998 30.0008 54.3998 30.5008 53.7998C31.1008 53.1998 31.4008 52.5998 31.5008 52.1998C31.6008 51.7998 31.5008 51.5998 31.0008 51.0998C30.5008 50.4998 29.6008 49.4998 28.9008 48.3998C28.2008 47.2998 27.7008 46.0998 27.1008 44.7998C26.6008 43.4998 26.0008 42.0998 26.2008 40.5998C26.4008 39.1998 27.3008 37.7998 27.9008 36.7998C28.5008 35.7998 28.8008 35.2998 28.5008 34.4998C28.2008 33.6998 27.3008 32.5998 26.7008 31.2998C26.1008 29.9998 25.8008 28.4998 25.8008 27.0998C25.8008 25.7998 25.9008 24.5998 26.3008 23.3998C26.6008 22.1998 27.1008 21.0998 27.9008 19.9998C28.7008 18.8998 29.8008 17.8998 30.6008 17.2998C31.4008 16.6998 31.9008 16.3998 32.2008 15.8998C32.5008 15.3998 32.5008 14.5998 32.7008 13.6998C32.9008 12.7998 33.4008 11.6998 34.1008 10.7998C34.8008 9.8998 35.6008 9.1998 36.5008 8.5998C37.4008 7.9998 38.4008 7.5998 39.6008 7.2998C40.8008 6.9998 42.1008 6.6998 43.3008 6.3998C44.4008 6.1998 45.3008 5.9998 46.0008 5.6998C46.7008 5.3998 47.2008 5.0998 47.9008 4.4998C48.7008 3.7998 49.7008 2.7998 51.0008 2.2998C52.3008 1.6998 53.8008 1.5998 55.2008 1.6998C56.6008 1.6998 57.8008 1.9998 58.9008 2.1998C60.0008 2.4998 60.8008 2.7998 61.7008 2.7998C62.6008 2.7998 63.4008 2.4998 64.5008 2.2998C65.5008 2.0998 66.8008 1.8998 68.0008 1.9998C69.2008 2.0998 70.5008 2.4998 71.5008 3.0998C72.5008 3.5998 73.3008 4.2998 74.0008 4.8998C74.7008 5.4998 75.3008 5.9998 76.7008 6.2998C78.0008 6.5998 80.1008 6.6998 81.7008 7.2998C83.4008 7.8998 84.6008 8.8998 85.6008 9.7998C86.6008 10.6998 87.2008 11.4998 87.7008 12.4998C88.2008 13.4998 88.6008 14.5998 89.4008 15.4998C90.2008 16.3998 91.3008 17.0998 92.5008 18.0998C93.7008 19.0998 95.1008 20.2998 95.9008 21.5998C96.7008 22.8998 96.9008 24.2998 97.2008 25.5998C97.5008 26.8998 97.8008 28.2998 97.3008 29.5998C96.9008 30.8998 95.7008 32.2998 94.8008 33.0998C93.9008 33.9998 93.2008 34.3998 93.4008 35.2998C93.6008 36.2998 94.6008 37.7998 95.2008 39.3998C95.8008 40.9998 96.0008 42.6998 95.8008 44.1998C95.6008 45.6998 95.1008 46.9998 94.3008 48.1998C93.6008 49.3998 92.7008 50.5998 92.0008 51.1998C91.3008 51.7998 90.9008 51.7998 91.0008 52.1998C91.2008 52.4998 92.0008 53.0998 93.0008 54.5998C94.1008 56.1998 95.4008 58.6998 96.1008 60.6998C96.8008 62.6998 97.0008 64.1998 96.6008 65.9998C96.2008 67.7998 95.1008 69.7998 94.9008 71.4998C94.7008 73.1998 95.5008 74.3998 96.0008 75.7998C96.5008 77.1998 96.8008 78.6998 96.9008 80.0998C96.9008 81.4998 96.7008 82.7998 96.3008 84.0998C96.0008 85.3998 95.5008 86.4998 94.8008 87.5998C94.1008 88.5998 93.0008 89.4998 91.9008 90.0998C90.8008 90.7998 89.7008 91.2998 88.8008 92.3998C88.0008 93.3998 87.5008 94.8998 86.7008 96.1998C85.9008 97.3998 84.8008 98.3998 83.7008 98.9998C82.7008 99.5998 81.7008 99.7998 80.5008 99.7998C79.3008 99.7998 77.8008 99.5998 76.8008 99.7998C75.9008 99.9998 75.5008 100.6 74.8008 101.3C74.1008 102.1 73.1008 103 72.1008 103.8C71.1008 104.6 70.1008 105.2 69.0008 105.6C67.9008 106 66.6008 106.1 65.0008 105.9C63.5008 105.4 61.6008 104.7 59.7008 104.5Z" fill="white"/>
<path fill-rule="evenodd" clip-rule="evenodd" d="M107.701 95.5004C107.901 95.3004 108.801 95.7004 109.601 96.1004C110.401 96.4004 111.201 96.6004 111.901 96.8004C112.601 96.9004 113.401 97.0004 114.101 97.0004C114.801 97.0004 115.401 97.0004 116.101 96.9004C116.801 96.8004 117.501 96.7004 118.001 96.5004C118.501 96.3004 118.801 96.1004 119.001 95.8004C119.201 95.5004 119.401 95.2004 119.501 94.8004C119.601 94.4004 119.601 93.9004 119.901 94.0004C120.201 94.0004 120.801 94.5004 121.101 95.1004C121.301 95.7004 121.201 96.3004 120.801 97.0004C120.401 97.7004 119.601 98.4004 118.701 99.2004C117.801 99.9004 116.701 100.6 115.601 101.1C114.501 101.6 113.401 102 112.701 102.2C112.001 102.4 111.701 102.5 111.201 102.1C110.701 101.7 110.001 100.7 109.501 99.9004C109.001 99.1004 108.701 98.3004 108.301 97.5004C108.001 96.6004 107.501 95.7004 107.701 95.5004ZM97.7007 22.2004C98.2007 22.7004 98.7007 23.6004 98.9007 24.8004C99.1007 26.0004 99.1007 27.3004 99.0007 28.9004C98.9007 30.5004 98.6007 32.3004 98.3007 34.4004C98.0007 36.5004 97.5007 38.9004 97.3007 40.5004C97.0007 42.2004 96.9007 43.1004 97.1007 46.2004C97.2007 49.3004 97.6007 54.7004 98.3007 60.2004C99.0007 65.7004 100.001 71.5004 101.001 76.4004C102.001 81.3004 102.801 85.5004 103.001 86.5004C103.101 87.5004 102.501 85.5004 102.001 84.5004C101.501 83.6004 101.101 83.8004 100.801 84.2004C100.501 84.6004 100.101 85.2004 99.8007 85.7004C99.4007 86.2004 99.0007 86.6004 98.6007 87.0004C98.1007 87.4004 97.6007 87.7004 97.4007 87.8004C97.1007 88.0004 97.1007 88.0004 97.2007 88.2004C97.2007 88.4004 97.2007 88.9004 97.2007 89.7004C97.2007 90.6004 97.2007 91.8004 96.9007 93.2004C96.6007 94.5004 96.1007 95.9004 95.0007 97.5004C93.9007 99.1004 92.3007 100.9 90.7007 102.2C89.1007 103.5 87.4007 104.3 85.3007 104.5C83.3007 104.7 80.9007 104.4 78.9007 104.1C76.9007 103.8 75.4007 103.5 75.0007 102.9C74.5007 102.3 75.1007 101.4 75.7007 100.8C76.3007 100.2 76.8007 99.8004 77.4007 99.7004C78.0007 99.5004 78.8007 99.6004 80.0007 99.5004C81.2007 99.4004 82.8007 99.2004 84.1007 98.7004C85.4007 98.2004 86.3007 97.3004 87.2007 96.3004C88.0007 95.3004 88.8007 94.3004 89.5007 93.3004C90.2007 92.3004 90.9007 91.4004 91.8007 90.4004C92.7007 89.5004 93.8007 88.6004 94.7007 87.5004C95.6007 86.4004 96.4007 85.1004 96.9007 83.8004C97.4007 82.5004 97.7007 81.2004 97.7007 79.9004C97.7007 78.6004 97.3007 77.2004 96.8007 75.8004C96.3007 74.4004 95.7007 73.1004 94.9007 71.9004C94.1007 70.7004 93.2007 69.8004 92.8007 69.1004C92.4007 68.4004 92.4007 67.9004 92.9007 67.2004C93.4007 66.4004 94.2007 65.3004 94.7007 63.8004C95.2007 62.3004 95.4007 60.5004 95.2007 58.8004C95.0007 57.1004 94.6007 55.6004 94.0007 54.5004C93.5007 53.4004 92.9007 52.8004 92.4007 52.4004C92.0007 51.9004 91.6007 51.6004 91.8007 51.3004C91.9007 51.0004 92.5007 50.6004 93.2007 49.9004C93.9007 49.2004 94.7007 48.1004 95.3007 46.6004C95.8007 45.0004 96.1007 43.0004 96.1007 41.4004C96.1007 39.8004 95.8007 38.7004 95.4007 37.7004C95.1007 36.7004 94.8007 35.8004 94.7007 35.0004C94.7007 34.1004 95.0007 33.3004 95.7007 32.2004C96.4007 31.1004 97.4007 29.7004 97.7007 28.3004C98.0007 26.9004 97.7007 25.6004 97.4007 24.5004C97.1007 23.4004 96.9007 22.6004 97.0007 22.2004C96.6007 21.8004 97.2007 21.8004 97.7007 22.2004Z" fill="#B94107"/>
<path fill-rule="evenodd" clip-rule="evenodd" d="M106.599 93.1004C106.599 93.5004 107.099 94.4004 107.699 94.8004C108.199 95.2004 108.699 95.1004 109.399 95.1004C110.099 95.2004 110.999 95.4004 111.799 95.6004C112.599 95.8004 113.399 96.1004 114.199 96.5004C114.999 96.9004 115.699 97.6004 116.099 98.0004C116.499 98.5004 116.599 98.7004 116.799 99.0004C116.999 99.2004 117.399 99.4004 117.699 99.5004C118.099 99.5004 118.499 99.3004 118.799 99.1004C119.099 98.8004 119.299 98.4004 118.899 97.7004C118.199 96.4004 116.099 94.5004 114.699 93.9004C113.999 93.6004 112.999 93.3004 112.099 93.1004C111.199 92.9004 110.299 92.7004 109.499 92.7004C108.799 92.6004 108.199 92.7004 107.699 92.7004C107.099 92.6004 106.599 92.7004 106.599 93.1004ZM83.799 99.1004C85.399 99.0004 86.899 99.2004 88.499 99.3004C90.099 99.4004 91.599 99.3004 92.799 99.2004C93.999 99.1004 94.799 99.0004 95.799 98.8004C96.799 98.6004 97.999 98.3004 98.999 98.1004C99.999 97.9004 100.899 97.7004 101.799 97.4004C102.699 97.2004 103.799 96.9004 104.599 96.6004C105.399 96.3004 106.099 96.0004 106.699 96.2004C107.299 96.4004 107.899 97.1004 107.999 97.5004C108.099 97.9004 107.799 98.1004 107.099 98.5004C106.299 98.8004 105.099 99.3004 103.099 99.8004C101.199 100.3 98.499 100.9 96.399 101.2C94.299 101.6 92.699 101.7 91.099 101.8C89.599 101.9 88.099 101.9 86.199 101.9C84.299 101.9 82.099 101.9 80.599 101.7C78.999 101.5 78.099 101.1 77.999 100.8C77.799 100.5 78.399 100.3 79.499 100C80.599 99.8004 82.199 99.3004 83.799 99.1004ZM91.299 90.1004C91.299 90.5004 91.699 90.7004 92.099 91.0004C92.499 91.2004 92.699 91.3004 93.099 91.4004C93.499 91.5004 93.999 91.4004 94.499 91.4004C94.999 91.3004 95.499 91.2004 95.899 91.0004C96.299 90.9004 96.699 90.7004 97.099 90.5004C97.499 90.3004 97.899 90.1004 98.299 89.9004C98.699 89.7004 99.099 89.5004 99.399 89.5004C99.699 89.4004 99.899 89.4004 100.199 89.3004C100.499 89.3004 100.899 89.2004 101.399 89.1004C101.899 89.0004 102.399 89.0004 102.599 88.7004C102.799 88.4004 102.699 88.0004 102.499 87.6004C102.199 87.2004 101.899 86.9004 101.599 86.7004C101.399 86.5004 101.199 86.5004 100.899 86.5004C100.599 86.5004 100.099 86.5004 99.499 86.7004C98.999 86.8004 98.399 87.0004 97.899 87.3004C97.399 87.5004 96.899 87.8004 96.499 88.0004C96.099 88.2004 95.699 88.4004 95.299 88.6004C94.899 88.7004 94.499 88.8004 93.999 88.8004C93.499 88.9004 92.799 88.9004 92.299 89.2004C91.799 89.3004 91.299 89.7004 91.299 90.1004ZM97.199 81.1004C97.499 81.2004 97.799 80.8004 98.299 80.5004C98.799 80.2004 99.399 79.8004 99.699 79.3004C99.999 78.8004 99.999 78.3004 99.899 77.9004C99.799 77.5004 99.599 77.2004 99.399 77.0004C99.399 77.0004 99.299 77.0004 98.999 77.2004C98.699 77.4004 97.999 77.6004 97.599 78.1004C97.199 78.6004 96.899 79.3004 96.799 79.9004C96.799 80.6004 96.999 81.1004 97.199 81.1004ZM93.799 55.9004C94.199 56.4004 95.199 56.5004 95.799 56.5004C96.399 56.5004 96.699 56.5004 96.799 56.1004C96.899 55.7004 96.799 55.0004 96.699 54.5004C96.599 54.1004 96.399 53.9004 96.099 53.9004C95.899 53.8004 95.599 53.8004 95.299 53.8004C94.999 53.8004 94.499 53.8004 94.099 54.2004C93.699 54.6004 93.399 55.4004 93.799 55.9004ZM95.299 37.4004C95.299 37.8004 94.599 38.0004 94.999 38.2004C95.399 38.3004 95.699 38.5004 95.999 38.6004C96.399 38.7004 96.799 38.7004 97.299 38.7004C97.799 38.7004 98.399 38.7004 98.899 38.4004C99.399 38.1004 99.799 37.5004 99.999 37.1004C100.199 36.6004 100.199 36.3004 100.099 36.1004C99.999 35.9004 99.799 35.9004 99.599 35.9004C99.299 35.9004 98.999 36.0004 98.499 36.1004C97.999 36.2004 97.399 36.2004 96.899 36.1004C96.399 36.1004 95.899 36.0004 95.299 36.3004C94.699 36.6004 95.299 37.1004 95.299 37.4004ZM97.599 28.3004C97.799 28.7004 98.099 28.8004 98.399 28.9004C98.699 29.0004 98.899 29.0004 99.099 29.0004C99.399 29.0004 99.699 29.0004 99.999 29.0004C100.299 29.0004 100.699 29.0004 100.999 29.0004C101.299 28.9004 101.499 28.8004 101.599 28.4004C101.699 28.0004 101.599 27.5004 101.399 27.1004C101.299 26.7004 101.099 26.5004 100.999 26.4004C100.899 26.3004 100.799 26.3004 100.599 26.3004C100.399 26.3004 100.099 26.3004 99.799 26.3004C99.499 26.3004 99.199 26.3004 98.899 26.3004C98.599 26.3004 98.399 26.2004 98.099 26.1004C97.799 26.0004 97.599 25.7004 97.399 25.8004C97.199 25.9004 97.099 26.3004 97.199 26.8004C97.199 27.3004 97.399 27.9004 97.599 28.3004Z" fill="#FAC18A"/>
<path fill-rule="evenodd" clip-rule="evenodd" d="M81.6996 81.0996C82.5996 82.1996 82.9996 83.6996 82.4996 85.2996C81.7996 87.6996 79.4996 89.0996 77.2996 88.4996C75.9996 88.0996 74.9996 87.0996 74.5996 85.7996C75.0996 86.3996 75.6996 86.7996 76.4996 86.9996C78.6996 87.5996 80.9996 86.1996 81.6996 83.7996C81.9996 82.7996 81.8996 81.8996 81.6996 81.0996Z" fill="#B1B2B3"/>
<path fill-rule="evenodd" clip-rule="evenodd" d="M62.6 90.9004C63.4 92.1004 63.6 93.7004 62.9 95.1004C62 97.4004 59.5 98.5004 57.4 97.6004C56.1 97.1004 55.3 95.9004 55 94.6004C55.4 95.2004 56 95.7004 56.7 96.0004C58.8 96.9004 61.3 95.7004 62.2 93.5004C62.7 92.7004 62.8 91.8004 62.6 90.9004Z" fill="#B1B2B3"/>
<path fill-rule="evenodd" clip-rule="evenodd" d="M48.3992 86.1996C47.5992 87.3996 46.1992 88.0996 44.5992 88.0996C42.1992 88.0996 40.1992 86.2996 40.1992 83.9996C40.1992 82.5996 40.9992 81.3996 42.0992 80.5996C41.6992 81.1996 41.4992 81.9996 41.4992 82.6996C41.4992 84.9996 43.4992 86.7996 45.8992 86.7996C46.7992 86.8996 47.6992 86.5996 48.3992 86.1996Z" fill="#B1B2B3"/>
<path fill-rule="evenodd" clip-rule="evenodd" d="M26.1 24.5996C25.9 24.8996 25.5 25.9996 25.5 27.2996C25.5 28.5996 25.9 30.0996 26.2 30.9996C26.6 31.8996 26.8 32.2996 27.3 32.5996C27.7 32.9996 28.3 33.2996 28.6 33.7996C28.9 34.2996 29 34.8996 29.9 34.9996C30.8 35.0996 32.5 34.6996 33.3 34.4996C34.1 34.2996 34.1 34.2996 33.8 34.1996C33.4 34.0996 32.7 33.8996 31.9 33.4996C31.1 32.9996 30.2 32.2996 29.3 31.3996C28.4 30.4996 27.5 29.4996 27 28.4996C26.4 27.3996 26.2 26.2996 26.2 25.4996C26.1 24.7996 26.2 24.2996 26.1 24.5996Z" fill="#B1B2B3"/>
<path fill-rule="evenodd" clip-rule="evenodd" d="M89.1996 51.5C89.0996 51.5 88.8997 51.5 88.8997 51.5C88.7997 51.5 88.7996 51.5 89.0996 51.8C89.3996 52.1 89.8997 52.7 90.2997 53.5C90.6997 54.3 90.9996 55.2 91.1996 56C91.3996 56.8 91.5996 57.5 91.5996 58.2C91.5996 58.9 91.4997 59.5 91.3997 60.3C91.2997 61.1 91.0996 62 91.6996 62.4C92.2996 62.8 93.6996 62.6 94.6996 62.3C95.6996 62 96.3996 61.6 96.6996 61.1C96.9996 60.7 96.8996 60.3 96.6996 59.9C96.5996 59.5 96.4997 59.1 95.7997 58.1C95.1997 57.1 93.9996 55.4 93.0996 54.3C92.1996 53.2 91.3997 52.5 90.8997 52.1C90.3997 51.7 89.9996 51.6 89.6996 51.6C89.5996 51.5 89.3996 51.5 89.1996 51.5Z" fill="#B1B2B3"/>
<path fill-rule="evenodd" clip-rule="evenodd" d="M30.6992 53.7996C30.8992 53.6996 30.4992 54.3996 30.2992 55.1996C30.0992 55.9996 29.9992 56.9996 29.9992 57.7996C29.9992 58.5996 30.0992 59.2996 30.3992 59.9996C30.6992 60.6996 31.1992 61.3996 31.0992 61.8996C30.9992 62.3996 30.1992 62.7996 29.4992 62.8996C28.7992 63.0996 27.9992 62.9996 27.4992 62.7996C26.9992 62.5996 26.6992 62.2996 26.6992 61.6996C26.6992 61.0996 26.8992 60.2996 27.2992 59.2996C27.6992 58.2996 28.2992 57.0996 28.9992 55.9996C29.6992 54.8996 30.4992 53.8996 30.6992 53.7996Z" fill="#B1B2B3"/>
<path fill-rule="evenodd" clip-rule="evenodd" d="M30.8999 74.3001C31.1999 73.7001 31.0999 73.3001 30.5999 73.1001C30.1999 72.9001 29.3999 72.9001 28.9999 73.3001C28.5999 73.6001 28.4999 74.2001 28.2999 75.9001C28.0999 77.6001 27.8999 80.4001 28.1999 82.9001C28.4999 85.3001 29.4999 87.4001 30.5999 88.9001C31.6999 90.4001 32.9999 91.4001 33.8999 92.5001C34.7999 93.7001 35.2999 95.0001 36.4999 96.2001C37.6999 97.4001 39.4999 98.4001 41.0999 99.0001C42.6999 99.6001 44.0999 99.9001 45.1999 100.3C46.2999 100.7 47.0999 101.3 48.3999 102.1C49.5999 103 51.2999 104.1 52.8999 104.7C54.4999 105.2 56.1999 105.1 57.1999 104.7C58.2999 104.3 58.6999 103.6 58.3999 103.3C58.0999 103 56.8999 103 55.8999 102.9C54.7999 102.9 53.8999 102.8 52.7999 102.6C51.6999 102.4 50.5999 102 49.7999 101.4C48.8999 100.8 48.3999 100.2 47.9999 99.5001C47.5999 98.9001 47.3999 98.3001 47.2999 98.0001C47.1999 97.7001 47.1999 97.7001 46.6999 97.7001C46.2999 97.7001 45.3999 97.8001 44.2999 97.6001C43.1999 97.4001 41.8999 96.9001 40.8999 96.3001C39.7999 95.8001 38.9999 95.3001 38.2999 94.6001C37.5999 93.9001 36.8999 93.0001 36.6999 92.1001C36.4999 91.3001 36.6999 90.5001 36.7999 90.1001C36.8999 89.7001 36.8999 89.7001 36.2999 89.5001C35.6999 89.3001 34.3999 89.0001 33.3999 88.1001C32.3999 87.3001 31.4999 85.9001 30.8999 84.6001C30.2999 83.3001 29.7999 82.1001 29.5999 80.7001C29.3999 79.3001 29.3999 77.8001 29.6999 76.6001C29.9999 75.8001 30.5999 74.9001 30.8999 74.3001Z" fill="#B1B2B3"/>
<path fill-rule="evenodd" clip-rule="evenodd" d="M91.6999 73.2003C91.2999 73.8003 91.9999 74.8003 92.4999 75.8003C92.9999 76.8003 93.2999 77.9003 93.3999 78.9003C93.4999 80.0003 93.4999 81.0003 93.1999 82.2003C92.8999 83.3003 92.2999 84.5003 91.5999 85.5003C90.8999 86.5003 90.0999 87.3003 89.3999 87.7003C88.6999 88.2003 88.0999 88.4003 87.7999 88.4003C87.4999 88.5003 87.4999 88.4003 87.4999 88.7003C87.5999 89.0003 87.6999 89.6003 87.6999 90.2003C87.6999 90.8003 87.3999 91.4003 87.0999 92.0003C86.7999 92.6003 86.2999 93.2003 85.8999 93.7003C85.3999 94.2003 84.9999 94.6003 84.2999 95.0003C83.5999 95.4003 82.7999 96.0003 81.7999 96.3003C80.7999 96.7003 79.6999 96.9003 78.6999 97.1003C77.6999 97.3003 76.8999 97.3003 76.6999 97.7003C76.4999 98.0003 76.8999 98.6003 77.5999 99.0003C78.2999 99.4003 79.0999 99.6003 79.9999 99.7003C80.8999 99.8003 81.6999 99.7003 82.5999 99.4003C83.5999 99.1003 84.5999 98.6003 85.6999 97.7003C86.6999 96.8003 87.7999 95.5003 88.3999 94.4003C89.0999 93.3003 89.3999 92.4003 89.9999 91.6003C90.5999 90.9003 91.5999 90.4003 92.6999 89.3003C93.7999 88.3003 94.9999 86.7003 95.7999 85.2003C96.4999 83.8003 96.6999 82.5003 96.7999 81.0003C96.8999 79.5003 96.7999 77.7003 96.4999 76.2003C96.1999 74.7003 95.6999 73.4003 94.6999 72.9003C93.6999 72.5003 92.0999 72.7003 91.6999 73.2003Z" fill="#B1B2B3"/>
<path fill-rule="evenodd" clip-rule="evenodd" d="M92.6001 34.6003C92.1001 34.2003 91.9001 34.3003 92.1001 34.7003C92.3001 35.1003 92.7001 35.8003 93.1001 36.8003C93.5001 37.8003 93.8001 39.2003 94.0001 40.6003C94.2001 42.0003 94.2001 43.5003 94.0001 45.1003C93.7001 46.7003 93.1001 48.4003 92.8001 49.2003C92.5001 50.0003 92.5001 50.1003 92.9001 49.7003C93.3001 49.4003 94.1001 48.7003 94.7001 47.7003C95.4001 46.7003 95.9001 45.4003 96.2001 44.1003C96.4001 42.8003 96.3001 41.6003 96.0001 40.3003C95.7001 39.1003 95.3001 37.8003 94.7001 36.8003C94.0001 35.9003 93.1001 35.1003 92.6001 34.6003Z" fill="#B1B2B3"/>
<path fill-rule="evenodd" clip-rule="evenodd" d="M26.1995 42.3995C26.2995 42.0995 26.2995 42.5995 26.4995 43.3995C26.6995 44.1995 27.1995 45.1995 27.9995 46.0995C28.7995 46.9995 29.7995 47.7995 30.8995 48.4995C31.9995 49.1995 32.9995 49.6995 33.8995 49.9995C34.7995 50.2995 35.4995 50.2995 35.8995 50.2995C36.2995 50.2995 36.2995 50.2995 35.4995 50.6995C34.6995 51.0995 33.1995 51.7995 32.2995 51.8995C31.2995 51.9995 30.9995 51.3995 30.5995 50.9995C30.1995 50.5995 29.5995 50.2995 29.0995 50.0995C28.5995 49.7995 28.2995 49.5995 27.6995 48.6995C27.1995 47.8995 26.3995 46.4995 26.1995 45.1995C25.9995 43.8995 26.0995 42.7995 26.1995 42.3995Z" fill="#B1B2B3"/>
<path fill-rule="evenodd" clip-rule="evenodd" d="M93.5006 99.2004C92.7006 100.2 91.8006 101.1 90.8006 102C89.4006 102.1 88.0006 102 86.3006 102C84.4006 102 82.2006 102 80.7006 101.8C79.1006 101.6 78.2006 101.2 78.1006 100.9C77.9006 100.6 78.5006 100.4 79.6006 100.1C80.7006 99.8004 82.3006 99.3004 83.8006 99.2004C85.4006 99.1004 86.9006 99.3004 88.5006 99.4004C90.1006 99.5004 91.6006 99.5004 92.8006 99.3004C93.0006 99.2004 93.2006 99.2004 93.5006 99.2004ZM98.6006 86.9004C98.4006 87.0004 98.1006 87.1004 97.9006 87.2004C97.4006 87.4004 96.9006 87.7004 96.5006 87.9004C96.1006 88.1004 95.7006 88.3004 95.3006 88.5004C94.9006 88.6004 94.5006 88.7004 94.0006 88.7004C93.5006 88.8004 92.8006 88.8004 92.3006 89.1004C91.8006 89.3004 91.3006 89.8004 91.3006 90.1004C91.3006 90.5004 91.7006 90.7004 92.1006 91.0004C92.5006 91.2004 92.7006 91.3004 93.1006 91.4004C93.5006 91.5004 94.0006 91.4004 94.5006 91.4004C95.0006 91.3004 95.5006 91.2004 95.9006 91.0004C96.2006 90.9004 96.5006 90.8004 96.8006 90.7004C96.8006 90.5004 96.8006 90.2004 96.8006 90.0004C96.8006 89.1004 96.8006 88.7004 96.8006 88.5004C96.8006 88.3004 96.8006 88.3004 97.0006 88.1004C97.3006 88.0004 97.8006 87.7004 98.2006 87.3004C98.4006 87.1004 98.5006 87.0004 98.6006 86.9004ZM97.9006 36.1004C97.6006 36.1004 97.2006 36.1004 96.9006 36.1004C96.4006 36.1004 95.9006 36.0004 95.3006 36.3004C94.7006 36.6004 94.9006 37.1004 94.9006 37.5004C94.9006 37.9004 94.5006 38.1004 95.0006 38.2004C95.4006 38.3004 95.7006 38.5004 96.0006 38.6004C96.4006 38.7004 96.8006 38.7004 97.3006 38.7004C97.3006 38.7004 97.4006 38.7004 97.5006 38.7004C97.6006 37.9004 97.8006 37.0004 97.9006 36.1004ZM99.0006 26.3004C98.9006 26.3004 98.9006 26.3004 98.8006 26.3004C98.5006 26.3004 98.3006 26.2004 98.0006 26.1004C97.7006 26.0004 97.5006 25.7004 97.3006 25.8004C97.1006 25.9004 97.0006 26.3004 97.1006 26.8004C97.1006 27.3004 97.3006 27.9004 97.5006 28.2004C97.7006 28.6004 98.0006 28.7004 98.3006 28.8004C98.5006 28.9004 98.7006 28.9004 98.9006 28.9004C99.0006 28.0004 99.1006 27.1004 99.0006 26.3004ZM118.001 96.5004C118.301 96.9004 118.601 97.2004 118.801 97.5004C119.201 98.2004 119.001 98.6004 118.701 98.9004C118.401 99.2004 118.001 99.4004 117.601 99.3004C117.201 99.3004 116.901 99.1004 116.701 98.8004C116.501 98.6004 116.401 98.3004 116.001 97.8004C115.701 97.5004 115.301 97.1004 114.801 96.8004C115.201 96.8004 115.701 96.8004 116.101 96.7004C116.801 96.8004 117.501 96.7004 118.001 96.5004Z" fill="#ED6C35"/>
<path fill-rule="evenodd" clip-rule="evenodd" d="M14.9008 95.4996C14.7008 95.2996 13.8008 95.6996 13.0008 96.0996C12.2008 96.3996 11.4008 96.5996 10.7008 96.7996C10.0008 96.8996 9.20078 96.9996 8.50078 96.9996C7.80078 96.9996 7.20078 96.9996 6.50078 96.8996C5.80078 96.7996 5.10078 96.6996 4.60078 96.4996C4.10078 96.2996 3.80078 96.0996 3.60078 95.7996C3.40078 95.4996 3.20078 95.1996 3.10078 94.7996C3.00078 94.2996 3.00078 93.8996 2.60078 93.8996C2.30078 93.8996 1.70078 94.3996 1.40078 94.9996C1.20078 95.5996 1.30078 96.1996 1.70078 96.8996C2.10078 97.5996 2.90078 98.2996 3.80078 99.0996C4.70078 99.7996 5.80078 100.5 6.90078 101C8.00078 101.5 9.10078 101.9 9.80078 102.1C10.5008 102.3 10.8008 102.4 11.3008 102C11.8008 101.6 12.5008 100.6 13.0008 99.7996C13.5008 98.9996 13.8008 98.1996 14.2008 97.3996C14.7008 96.5996 15.1008 95.6996 14.9008 95.4996ZM25.0008 22.1996C24.5008 22.6996 24.0008 23.5996 23.8008 24.7996C23.6008 25.9996 23.6008 27.2996 23.7008 28.8996C23.8008 30.4996 24.1008 32.2996 24.4008 34.3996C24.7008 36.4996 25.2008 38.8996 25.4008 40.4996C25.7008 42.1996 25.8008 43.0996 25.6008 46.1996C25.5008 49.2996 25.1008 54.6996 24.4008 60.1996C23.7008 65.6996 22.7008 71.4996 21.7008 76.3996C20.7008 81.2996 19.9008 85.4996 19.7008 86.4996C19.6008 87.4996 20.2008 85.4996 20.7008 84.4996C21.2008 83.5996 21.6008 83.7996 21.9008 84.1996C22.2008 84.5996 22.6008 85.1996 22.9008 85.6996C23.3008 86.1996 23.7008 86.5996 24.1008 86.9996C24.6008 87.3996 25.1008 87.6996 25.3008 87.7996C25.6008 87.9996 25.6008 87.9996 25.5008 88.1996C25.5008 88.3996 25.5008 88.8996 25.5008 89.6996C25.5008 90.5996 25.5008 91.7996 25.8008 93.1996C26.1008 94.4996 26.6008 95.8996 27.7008 97.4996C28.8008 99.0996 30.4008 100.9 32.0008 102.2C33.6008 103.5 35.3008 104.3 37.4008 104.5C39.4008 104.7 41.8008 104.4 43.8008 104.1C45.8008 103.8 47.3008 103.5 47.7008 102.9C48.2008 102.3 47.6008 101.4 47.0008 100.8C46.4008 100.2 45.9008 99.7996 45.3008 99.6996C44.7008 99.4996 43.9008 99.5996 42.7008 99.4996C41.5008 99.3996 39.9008 99.1996 38.6008 98.6996C37.3008 98.1996 36.4008 97.2996 35.5008 96.2996C34.7008 95.2996 33.9008 94.2996 33.2008 93.2996C32.5008 92.2996 31.8008 91.3996 30.9008 90.3996C30.0008 89.4996 28.9008 88.5996 28.0008 87.4996C27.1008 86.3996 26.3008 85.0996 25.8008 83.7996C25.3008 82.4996 25.0008 81.1996 25.0008 79.8996C25.0008 78.5996 25.4008 77.1996 25.9008 75.7996C26.4008 74.3996 27.0008 73.0996 27.8008 71.8996C28.6008 70.6996 29.5008 69.7996 29.9008 69.0996C30.3008 68.3996 30.3008 67.8996 29.8008 67.1996C29.3008 66.3996 28.5008 65.2996 28.0008 63.7996C27.5008 62.2996 27.3008 60.4996 27.5008 58.7996C27.7008 57.0996 28.1008 55.5996 28.7008 54.4996C29.2008 53.3996 29.8008 52.7996 30.3008 52.3996C30.8008 51.8996 31.1008 51.5996 30.9008 51.2996C30.8008 50.9996 30.2008 50.5996 29.5008 49.8996C28.8008 49.1996 28.0008 48.0996 27.4008 46.5996C27.3008 44.9996 27.0008 42.8996 27.0008 41.2996C27.0008 39.6996 27.3008 38.5996 27.7008 37.5996C28.0008 36.5996 28.3008 35.6996 28.4008 34.8996C28.4008 33.9996 28.1008 33.1996 27.4008 32.0996C26.7008 30.9996 25.7008 29.5996 25.4008 28.1996C25.1008 26.7996 25.4008 25.4996 25.7008 24.3996C26.0008 23.2996 26.2008 22.4996 26.1008 22.0996C26.0008 21.7996 25.5008 21.7996 25.0008 22.1996Z" fill="#B94107"/>
<path fill-rule="evenodd" clip-rule="evenodd" d="M16.0002 93.1004C16.0002 93.5004 15.5002 94.4004 14.9002 94.8004C14.4002 95.2004 13.9002 95.1004 13.2002 95.1004C12.5002 95.2004 11.6002 95.4004 10.8002 95.6004C10.0002 95.8004 9.30017 96.0004 8.50017 96.5004C7.80017 96.9004 7.00017 97.5004 6.60017 98.0004C6.20017 98.5004 6.10017 98.7004 5.90017 99.0004C5.70017 99.2004 5.30017 99.4004 5.00017 99.5004C4.60017 99.5004 4.20017 99.3004 3.90017 99.1004C3.60017 98.8004 3.40017 98.4004 3.80017 97.7004C4.50017 96.4004 6.60017 94.5004 8.00017 93.9004C8.70017 93.6004 9.70017 93.3004 10.6002 93.1004C11.5002 92.9004 12.4002 92.7004 13.2002 92.7004C13.9002 92.6004 14.5002 92.7004 15.0002 92.7004C15.6002 92.6004 16.0002 92.7004 16.0002 93.1004ZM38.9002 99.1004C37.3002 99.0004 35.8002 99.2004 34.2002 99.3004C32.6002 99.4004 31.1002 99.3004 29.9002 99.2004C28.7002 99.1004 27.9002 99.0004 26.9002 98.8004C25.9002 98.6004 24.7002 98.3004 23.7002 98.1004C22.7002 97.9004 21.8002 97.7004 20.9002 97.4004C20.0002 97.2004 18.9002 96.9004 18.1002 96.6004C17.3002 96.3004 16.6002 96.0004 16.0002 96.2004C15.4002 96.4004 14.8002 97.1004 14.7002 97.5004C14.6002 97.9004 14.9002 98.1004 15.6002 98.5004C16.4002 98.8004 17.6002 99.3004 19.6002 99.8004C21.5002 100.3 24.2002 100.9 26.3002 101.2C28.4002 101.6 30.0002 101.7 31.6002 101.8C33.1002 101.9 34.6002 101.9 36.5002 101.9C38.4002 101.9 40.6002 101.9 42.1002 101.7C43.7002 101.5 44.6002 101.1 44.7002 100.8C44.9002 100.5 44.3002 100.3 43.2002 100C42.0002 99.8004 40.4002 99.3004 38.9002 99.1004ZM31.3002 90.1004C31.3002 90.5004 30.9002 90.7004 30.5002 91.0004C30.1002 91.2004 29.9002 91.3004 29.5002 91.4004C29.1002 91.5004 28.6002 91.4004 28.1002 91.4004C27.6002 91.3004 27.1002 91.2004 26.7002 91.0004C26.3002 90.9004 25.9002 90.7004 25.5002 90.5004C25.1002 90.3004 24.7002 90.1004 24.3002 89.9004C23.9002 89.7004 23.5002 89.5004 23.2002 89.5004C22.9002 89.4004 22.7002 89.4004 22.4002 89.3004C22.1002 89.3004 21.7002 89.2004 21.2002 89.1004C20.7002 89.0004 20.2002 89.0004 20.0002 88.7004C19.8002 88.4004 19.9002 88.0004 20.1002 87.6004C20.3002 87.2004 20.7002 86.9004 21.0002 86.7004C21.2002 86.5004 21.4002 86.5004 21.7002 86.5004C22.0002 86.5004 22.5002 86.5004 23.1002 86.7004C23.6002 86.8004 24.2002 87.0004 24.7002 87.3004C25.2002 87.5004 25.7002 87.8004 26.1002 88.0004C26.5002 88.2004 26.9002 88.4004 27.3002 88.6004C27.7002 88.7004 28.1002 88.8004 28.6002 88.8004C29.1002 88.9004 29.8002 88.9004 30.3002 89.2004C30.9002 89.3004 31.3002 89.7004 31.3002 90.1004ZM25.4002 81.1004C25.1002 81.2004 24.8002 80.8004 24.3002 80.5004C23.8002 80.2004 23.2002 79.8004 22.9002 79.3004C22.6002 78.8004 22.6002 78.3004 22.7002 77.9004C22.8002 77.5004 23.0002 77.2004 23.2002 77.0004C23.3002 76.9004 23.4002 76.9004 23.8002 77.1004C24.1002 77.3004 24.8002 77.5004 25.2002 78.0004C25.6002 78.5004 25.9002 79.2004 26.0002 79.8004C25.9002 80.6004 25.7002 81.1004 25.4002 81.1004ZM28.9002 55.9004C28.5002 56.4004 27.5002 56.5004 26.9002 56.5004C26.3002 56.5004 26.0002 56.5004 25.9002 56.1004C25.8002 55.7004 25.9002 55.0004 26.0002 54.5004C26.1002 54.1004 26.3002 53.9004 26.6002 53.9004C26.8002 53.8004 27.1002 53.8004 27.4002 53.8004C27.7002 53.8004 28.2002 53.8004 28.6002 54.2004C28.9002 54.6004 29.2002 55.4004 28.9002 55.9004ZM28.0002 37.3004C28.0002 37.7004 28.1002 38.0004 27.7002 38.2004C27.3002 38.3004 27.0002 38.5004 26.7002 38.6004C26.3002 38.7004 25.9002 38.7004 25.4002 38.7004C24.9002 38.7004 24.3002 38.7004 23.8002 38.4004C23.3002 38.1004 22.9002 37.5004 22.7002 37.1004C22.5002 36.6004 22.5002 36.3004 22.6002 36.1004C22.7002 35.9004 22.9002 35.9004 23.1002 35.9004C23.4002 35.9004 23.7002 36.0004 24.2002 36.1004C24.7002 36.2004 25.3002 36.2004 25.8002 36.1004C26.3002 36.1004 26.8002 36.0004 27.4002 36.3004C27.9002 36.6004 28.0002 37.0004 28.0002 37.3004ZM25.1002 28.3004C24.9002 28.7004 24.6002 28.8004 24.3002 28.9004C24.0002 29.0004 23.8002 29.0004 23.6002 29.0004C23.3002 29.0004 23.0002 29.0004 22.7002 29.0004C22.4002 29.0004 22.0002 29.0004 21.7002 29.0004C21.4002 28.9004 21.2002 28.8004 21.1002 28.4004C21.0002 28.0004 21.1002 27.5004 21.3002 27.1004C21.4002 26.7004 21.6002 26.5004 21.7002 26.4004C21.8002 26.3004 21.9002 26.3004 22.1002 26.3004C22.3002 26.3004 22.6002 26.3004 22.9002 26.3004C23.2002 26.3004 23.5002 26.3004 23.8002 26.3004C24.1002 26.3004 24.3002 26.2004 24.6002 26.1004C24.9002 26.0004 25.1002 25.7004 25.3002 25.8004C25.5002 25.9004 25.6002 26.3004 25.5002 26.8004C25.4002 27.3004 25.3002 27.9004 25.1002 28.3004Z" fill="#FAC18A"/>
<path fill-rule="evenodd" clip-rule="evenodd" d="M29.2002 99.2004C30.0002 100.2 30.9002 101.1 31.9002 102C33.3002 102.1 34.7002 102 36.4002 102C38.3002 102 40.5002 102 42.0002 101.8C43.6002 101.6 44.5002 101.2 44.6002 100.9C44.8002 100.6 44.2002 100.4 43.1002 100.1C42.0002 99.8004 40.4002 99.3004 38.9002 99.2004C37.3002 99.1004 35.8002 99.3004 34.2002 99.4004C32.6002 99.5004 31.1002 99.5004 29.9002 99.3004C29.6002 99.2004 29.4002 99.2004 29.2002 99.2004ZM24.0002 86.9004C24.2002 87.0004 24.5002 87.1004 24.7002 87.2004C25.2002 87.4004 25.7002 87.7004 26.1002 87.9004C26.5002 88.1004 26.9002 88.3004 27.3002 88.5004C27.7002 88.6004 28.1002 88.7004 28.6002 88.7004C29.1002 88.8004 29.8002 88.8004 30.3002 89.1004C30.8002 89.3004 31.3002 89.8004 31.3002 90.1004C31.3002 90.5004 30.9002 90.7004 30.5002 91.0004C30.1002 91.2004 29.9002 91.3004 29.5002 91.4004C29.1002 91.5004 28.6002 91.4004 28.1002 91.4004C27.6002 91.3004 27.1002 91.2004 26.7002 91.0004C26.4002 90.9004 26.1002 90.8004 25.8002 90.7004C25.8002 90.5004 25.8002 90.2004 25.8002 90.0004C25.8002 89.1004 25.8002 88.7004 25.8002 88.5004C25.8002 88.3004 25.8002 88.3004 25.6002 88.1004C25.3002 88.0004 24.8002 87.7004 24.4002 87.3004C24.2002 87.1004 24.1002 87.0004 24.0002 86.9004ZM24.7002 36.1004C25.0002 36.1004 25.4002 36.1004 25.7002 36.1004C26.2002 36.1004 26.7002 36.0004 27.3002 36.3004C27.9002 36.6004 28.2002 37.2004 28.2002 37.6004C28.2002 38.0004 28.1002 38.1004 27.6002 38.3004C27.2002 38.4004 26.9002 38.6004 26.6002 38.7004C26.2002 38.8004 25.8002 38.8004 25.3002 38.8004C25.3002 38.8004 25.2002 38.8004 25.1002 38.8004C25.0002 37.9004 24.9002 37.0004 24.7002 36.1004ZM23.6002 26.3004C23.7002 26.3004 23.7002 26.3004 23.8002 26.3004C24.1002 26.3004 24.3002 26.2004 24.6002 26.1004C24.9002 26.0004 25.1002 25.7004 25.3002 25.8004C25.5002 25.9004 25.6002 26.3004 25.5002 26.8004C25.5002 27.3004 25.3002 27.9004 25.1002 28.2004C24.9002 28.6004 24.6002 28.7004 24.3002 28.8004C24.1002 28.9004 23.9002 28.9004 23.7002 28.9004C23.6002 28.0004 23.6002 27.1004 23.6002 26.3004ZM4.60017 96.5004C4.30017 96.9004 4.00017 97.2004 3.80017 97.5004C3.40017 98.2004 3.60017 98.6004 3.90017 98.9004C4.20017 99.2004 4.60017 99.4004 5.00017 99.3004C5.40017 99.3004 5.70017 99.1004 5.90017 98.8004C6.10017 98.6004 6.20017 98.3004 6.60017 97.8004C6.90017 97.5004 7.30017 97.1004 7.80017 96.8004C7.40017 96.8004 6.90017 96.8004 6.50017 96.7004C5.80017 96.8004 5.10017 96.7004 4.60017 96.5004Z" fill="#ED6C35"/>
<path fill-rule="evenodd" clip-rule="evenodd" d="M14.6 91.8C14 91.8 13.3 91.8 12.5 91.9C11.7 92 10.9 92 10.1 92.1C9.3 92.2 8.4 92.3 7.4 92.5C6.4 92.7 5.1 93.1 4.3 93.5C3.5 93.8 3 94.1 2.7 94.3C2.4 94.5 2.3 94.7 2.3 94.9C2.3 95.1 2.3 95.3 2.5 95.6C2.6 95.9 2.8 96.2 3.2 96.6C3.5 97 4 97.4 4.3 97.7C4.6 98 4.9 98.2 5.3 98.5C5.7 98.8 6.3 99.2 7 99.5C7.7 99.9 8.5 100.2 9.2 100.5C9.9 100.8 10.4 100.9 10.7 101C11 101.1 11 101.1 11 100.9C11.1 100.7 11.2 100.3 11.4 99.8C11.6 99.3 12 98.6 12.5 97.7C13 96.8 13.7 95.7 14.3 94.9C14.9 94 15.3 93.4 15.6 92.9C15.9 92.4 16.1 92.1 16.2 91.9C16.3 91.7 16.3 91.7 16.1 91.7C15.7 91.7 15.2 91.7 14.6 91.8ZM25 22.8C24.8 22.7 24.5 22.6 24.3 22.5C24 22.4 23.8 22.2 23.5 21.9C23.2 21.7 23 21.4 22.9 21.3C22.8 21.2 22.8 21.2 22.7 21.5C22.6 21.8 22.4 22.5 22.2 23.3C22 24.1 21.9 25.1 21.9 26C21.8 26.9 21.8 27.8 21.9 28.8C21.9 29.7 22 30.6 22.1 31.5C22.2 32.4 22.4 33.2 22.7 34C22.9 34.8 23.2 35.5 23.5 36.5C23.9 37.5 24.3 38.8 24.6 39.8C24.9 40.8 25.1 41.5 25.3 42.1C25.3 39.3 26.3 36.7 28 34.9C24.5 32.3 23.4 27.4 25 22.8ZM30.8 51.6C30 51.3 29.1 50.9 28.4 50.3C27.7 49.6 27.1 48.6 26.8 48.1C26.5 47.6 26.5 47.6 26.6 48.4C26.7 49.2 26.8 50.9 26.9 52C26.9 53.1 26.9 53.7 26.7 54.4C26.5 55 26.1 55.7 25.9 56.1C25.7 56.4 25.7 56.4 25.9 56.6C26.1 56.7 26.5 56.9 26.9 57.2C27.3 54.6 28.6 52.6 30.8 51.6ZM33.3 107.2C31.4 107.3 29.5 107.4 27 107.4C24.5 107.4 21.5 107.3 19.2 107C16.9 106.8 15.5 106.4 14.3 105.9C13.1 105.4 12.2 104.7 11.7 104.4C11.2 104.1 11.2 104.1 11.1 104C10.9 103.9 10.6 103.8 9.8 103.5C9.1 103.2 7.9 102.7 6.6 102.1C5.3 101.4 3.8 100.6 2.8 99.7C1.8 98.8 1.2 98 0.7 97.2C0.3 96.4 0 95.7 0 95C0 94.3 0.1 93.5 0.8 92.9C1.5 92.2 2.7 91.6 4.1 91.1C5.5 90.6 7.1 90.1 9 89.8C10.8 89.5 12.9 89.4 14.3 89.4C15.8 89.4 16.7 89.5 17.1 89.6C17.6 89.7 17.6 89.7 17.8 89.2C18 88.7 18.5 87.7 18.9 86.8C19.2 85.9 19.3 85 19.6 83.9C19.8 82.8 20.1 81.4 20.4 79.4C20.8 77.4 21.2 74.9 21.5 73.3C21.8 71.7 22.2 70 22.2 69.6C22 69.3 21.8 69.1 21.6 68.8C21.1 68 20.9 67.4 20.8 66.7C20.7 66 20.7 65.2 21 63.5C21.3 61.8 21.9 59.3 22.4 57.9C22.9 56.5 23.3 56.2 23.7 56.1C23.8 56.1 23.9 55.9 23.9 55.6C24 55.3 24.1 54.7 24.2 54C24.3 53.3 24.3 52.6 24.2 51.6C24.2 50.6 24.1 49.3 23.8 47.7C23.7 46 23.2 44 22.5 42C21.9 40 21.1 37.9 20.5 36.1C19.9 34.4 19.6 33 19.4 31.5C19.2 29.9 19.2 28.1 19.3 26.5C19.4 24.9 19.5 23.6 19.7 22.5C19.9 21.4 20.1 20.6 20.4 20C20.7 19.3 21.1 18.8 21.5 18.5C21.9 18.2 22.4 18.2 22.8 18.2C23.2 18.2 23.6 18.3 23.9 18.6C24.2 18.9 24.5 19.2 24.8 19.6C25.1 19.9 25.3 20.2 25.6 20.4C25.7 20.5 25.9 20.6 26 20.6C26.1 20.4 26.2 20.2 26.4 20C27.6 18.1 29.3 16.6 31.1 15.6C31.8 11.8 32 9.9 35.6 7.5C38.4 5.7 42 5 45.7 5.3C47.8 2.1 51.3 0 55.2 0C57.5 0 59.7 0.7 61.5 2C63.1 0.9 65 0.2 67 0.2C70.6 0.2 73.8 2.2 75.7 5.4C80.2 4.4 85.4 6.6 88.3 11.2C89 12.4 89.6 13.6 89.9 14.8C92.3 15.7 94.5 17.5 96.1 20C96.2 20.2 96.3 20.4 96.5 20.6C96.6 20.5 96.8 20.5 96.9 20.4C97.2 20.2 97.4 20 97.7 19.6C98 19.3 98.2 18.9 98.6 18.6C98.9 18.3 99.3 18.2 99.7 18.2C100.1 18.2 100.6 18.2 101 18.5C101.4 18.8 101.8 19.3 102.1 20C102.4 20.7 102.6 21.5 102.8 22.5C103 23.6 103.1 24.9 103.2 26.5C103.3 28.1 103.3 29.9 103.1 31.5C102.9 33.1 102.6 34.4 102 36.1C101.4 37.8 100.7 39.9 100 42C99.3 44.1 98.9 46 98.6 47.6C98.3 49.2 98.2 50.5 98.2 51.5C98.2 52.5 98.2 53.2 98.2 53.9C98.3 54.6 98.4 55.2 98.5 55.5C98.6 55.8 98.7 56 98.7 56C99.1 56.1 99.5 56.4 100 57.8C100.5 59.2 101.1 61.7 101.4 63.4C101.7 65.1 101.7 65.9 101.6 66.6C101.5 67.3 101.3 67.9 100.8 68.7C100.6 68.9 100.4 69.2 100.2 69.5C100.1 69.9 100.6 71.7 100.9 73.2C101.2 74.8 101.6 77.3 102 79.3C102.4 81.3 102.6 82.7 102.8 83.8C103 84.9 103.1 85.8 103.5 86.7C103.8 87.6 104.3 88.6 104.6 89.1C104.8 89.6 104.8 89.6 105.3 89.5C105.7 89.4 106.7 89.3 108.1 89.3C109.5 89.3 111.6 89.4 113.4 89.7C115.2 90 116.8 90.5 118.3 91C119.7 91.5 120.9 92.1 121.6 92.8C122.3 93.5 122.5 94.2 122.4 94.9C122.4 95.6 122.1 96.2 121.7 97C121.3 97.8 120.7 98.6 119.6 99.5C118.6 100.4 117.1 101.2 115.8 101.9C114.5 102.6 113.4 103 112.6 103.3C111.9 103.6 111.5 103.7 111.3 103.8C111.1 103.9 111.1 103.9 110.7 104.2C110.2 104.5 109.3 105.2 108.1 105.7C106.9 106.2 105.4 106.6 103.2 106.8C100.9 107 97.9 107.1 95.4 107.2C92.9 107.2 91 107.1 89.1 107C89 107.5 89 107.9 88.8 108.4C88.6 108.8 88.4 109.3 88 109.7C87.6 110.1 87.2 110.6 86.7 110.9C86.2 111.2 85.7 111.4 85.3 111.4C84.9 111.5 84.6 111.5 84.1 111.3C83.6 111.1 83 110.7 82.2 110.1C81.3 109.5 80.2 108.6 79 107.9C77.8 107.2 76.5 106.7 75.3 106.3C74.1 105.9 73.1 105.6 72 105.4C69.9 106.8 67.4 107.3 64.9 106.8C64.8 106.8 64.7 106.8 64.6 106.7C66.9 108.1 69.5 109.5 70.6 110.2C71.8 110.9 71.8 110.9 71.9 110.6C72.1 110.4 72.4 109.9 72.8 109.5C73.3 109.1 73.9 108.8 74.4 108.6C75 108.5 75.5 108.5 75.8 108.7C76.1 108.9 76.3 109.2 76.3 109.6C76.3 110.1 76 110.7 75.6 111.3C75.1 111.9 74.5 112.6 73.8 113C73.2 113.4 72.6 113.5 72 113.4C71.4 113.3 70.6 112.9 69.2 112C67.8 111.1 65.7 109.8 63.8 108.8C61.9 107.7 60.3 107 58.6 106.5C56.2 105.8 53.9 105.8 51.6 105.3C50.8 105.1 50.1 104.9 49.4 104.6C48.6 104.9 47.8 105.2 46.7 105.4C45.5 105.7 44 105.9 42.5 106.1C41 106.3 39.6 106.5 38 106.6C36.6 107 35 107.1 33.3 107.2ZM108 91.8C107.4 91.8 106.9 91.8 106.7 91.8C106.5 91.8 106.5 91.8 106.6 92C106.7 92.2 106.9 92.5 107.2 93C107.5 93.5 107.9 94.1 108.5 95C109.1 95.9 109.7 97 110.3 97.8C110.8 98.7 111.1 99.3 111.4 99.9C111.6 100.4 111.8 100.8 111.8 101C111.9 101.2 111.9 101.2 112.1 101.1C112.4 101 112.9 100.9 113.6 100.6C114.3 100.3 115.1 100 115.8 99.6C116.5 99.2 117.1 98.8 117.5 98.6C117.9 98.3 118.1 98.1 118.5 97.8C118.8 97.5 119.3 97.1 119.6 96.7C119.9 96.3 120.1 96 120.3 95.7C120.4 95.4 120.5 95.2 120.5 95C120.5 94.8 120.4 94.6 120.1 94.4C119.8 94.2 119.4 93.9 118.5 93.6C117.7 93.3 116.4 92.9 115.4 92.6C114.4 92.4 113.5 92.3 112.7 92.2C111.9 92.1 111 92 110.3 92C109.3 91.8 108.6 91.8 108 91.8ZM85.6 107.6C85.8 107.4 86 107.3 86.1 107.2C86.2 107.1 86.2 107.1 85.4 107C84.6 106.9 83 106.8 82.2 106.7C81.4 106.6 81.4 106.6 81.9 107C82.4 107.4 83.5 108.1 84 108.5C84.5 108.9 84.5 108.9 84.6 108.7C84.7 108.6 84.8 108.3 85 108.1C85.2 107.9 85.4 107.7 85.6 107.6ZM42.9 103.8C42.8 103.8 42.8 103.8 42.7 103.8C40.8 104.1 38.6 104.3 36.7 104.5C34.8 104.7 33.3 104.8 31.5 104.8C29.7 104.8 27.6 104.8 25.6 104.8C23.6 104.8 21.6 104.7 20 104.5C18.4 104.3 17.1 103.9 16 103.5C14.9 103.1 14 102.8 13.7 102.2C13.4 101.6 13.7 100.8 14.3 99.7C14.9 98.6 15.8 97.3 16.7 95.9C17.6 94.4 18.6 92.8 19.5 91.3C20.3 89.7 21 88.2 21.5 86.6C22 85 22.4 83.4 22.7 81.7C23 80 23.3 78.1 23.6 76.4C23.8 74.9 24.1 73.5 24.3 72.2C25.3 72.9 27.3 73.4 27.3 74.2C27.4 76 26.4 77.9 26.4 79.8C26.4 85.9 29.3 91.3 33.6 93.9C35 97.5 38 100.3 41.9 101.2C43 101.4 44.1 101.5 45.2 101.4C45.7 102.1 46.3 102.7 46.9 103.2C46.3 103.3 45.7 103.5 45.1 103.6C44.4 103.6 43.6 103.7 42.9 103.8ZM97.6 22.8C99.2 27.3 98.1 32.2 94.7 35C96.3 36.7 97.4 39.3 97.4 42.2C97.6 41.5 97.8 40.8 98.1 39.9C98.4 38.9 98.9 37.6 99.2 36.6C99.6 35.6 99.8 34.9 100 34.1C100.2 33.3 100.4 32.5 100.6 31.6C100.7 30.7 100.8 29.8 100.8 28.9C100.8 28 100.8 27.1 100.8 26.1C100.7 25.2 100.6 24.2 100.5 23.4C100.3 22.6 100.1 22 100 21.6C99.9 21.3 99.9 21.3 99.8 21.4C99.7 21.5 99.4 21.8 99.2 22C98.9 22.2 98.7 22.4 98.4 22.6C98.1 22.7 97.8 22.8 97.6 22.8ZM91.8 51.6C93.9 52.6 95.2 54.6 95.8 57.1C96.2 56.9 96.6 56.7 96.8 56.5C97 56.4 97 56.4 96.8 56C96.6 55.7 96.2 55 96 54.3C95.8 53.7 95.7 53.1 95.8 51.9C95.8 50.8 96 49.1 96.1 48.3C96.2 47.5 96.2 47.5 95.9 48C95.6 48.5 95 49.5 94.3 50.2C93.5 51 92.6 51.3 91.8 51.6ZM98.3 71.7C97.7 72.3 97 72.7 96.4 73.2C97.9 75.7 98.6 78.8 98.2 82C97.7 86.8 93.9 91.2 90.7 92.4C88.9 98.5 83.5 102.2 78.1 100.9C77.6 100.8 77.1 100.6 76.6 100.4C76.1 101.4 75.6 102.2 74.9 103C76.5 103.3 78.1 103.5 80 103.8C81.9 104.1 84.1 104.3 86 104.5C87.9 104.7 89.4 104.8 91.2 104.8C93 104.8 95.1 104.8 97.1 104.8C99.1 104.8 101.1 104.7 102.7 104.5C104.3 104.3 105.6 103.9 106.7 103.5C107.8 103.1 108.7 102.8 109 102.2C109.3 101.6 109 100.8 108.4 99.7C107.8 98.6 106.9 97.3 106 95.9C105.1 94.4 104.1 92.8 103.2 91.3C102.4 89.7 101.7 88.2 101.2 86.6C100.7 85 100.3 83.4 100 81.7C99.7 80 99.4 78.1 99.1 76.4C98.8 74.7 98.5 73.1 98.3 71.7ZM29.7 74C29 75.7 28.6 77.6 28.6 79.7C28.6 84.8 31.1 89.3 34.6 91.4C34.9 91.6 35.2 91.7 35.5 91.9C35.6 92.2 35.7 92.5 35.8 92.8C36.9 95.7 39.3 98 42.5 98.7C43.4 98.9 44.3 99 45.1 98.9C45.5 98.9 45.8 98.8 46.1 98.8C46.3 99.2 46.6 99.6 46.8 99.9C48.1 101.6 50 102.9 52.2 103.4C54.6 103.9 57.1 103.5 59.1 102.3C59.5 102.1 59.9 101.8 60.3 101.5C60.6 101.9 60.9 102.3 61.3 102.7C62.3 103.8 63.6 104.5 65.1 104.9C69 105.9 72.9 103.7 74.9 99.6C75.2 98.9 75.5 98.1 75.7 97.3C76.2 97.7 76.7 98 77.2 98.2C77.6 98.4 78 98.5 78.4 98.6C82.7 99.7 87 96.7 88.5 91.8C88.6 91.4 88.7 91.1 88.8 90.7C96.4 88.7 97.7 79.8 94.7 74C86.4 78 74.8 80.5 61.9 80.5C49.4 80.3 38 77.9 29.7 74ZM33.4 16.5C33.4 16.4 33.4 16.3 33.4 16.2C33.2 13.4 34.5 10.6 37.2 8.8C39.6 7.2 42.7 6.6 45.8 6.9C46.2 6.9 46.5 7 46.9 7C47 6.8 47.2 6.5 47.3 6.3C49 3.7 51.9 1.9 55.2 1.9C57.1 1.9 58.9 2.5 60.4 3.5C60.8 3.8 61.1 4 61.5 4.3C61.8 4 62.1 3.8 62.5 3.5C63.8 2.6 65.4 2.1 67 2.1C70 2.1 72.6 3.8 74.2 6.4C74.5 7 74.7 7.5 74.9 8C75.4 7.8 75.9 7.6 76.4 7.5C80.1 6.7 84.3 8.5 86.7 12.3C87.3 13.2 87.7 14.2 88 15.2C88.1 15.6 88.2 15.9 88.3 16.3C88.7 16.4 89.1 16.5 89.5 16.7C91.5 17.5 93.3 18.9 94.6 20.9C97.4 25.2 96.8 30.6 93.3 33.3C93.1 33.5 92.8 33.7 92.5 33.8C92.2 34 91.9 34.1 91.6 34.2C93.6 35.9 95 38.8 95 42C95 46.6 92.3 50.4 88.7 51.3C91.4 52.8 93.6 56.1 93.8 59.8C89.7 61.7 84.9 63.2 79.6 64.2C78.9 63.5 78.2 62.6 77.6 61.9C77 61.1 76.5 60.3 76.1 59.4C75.7 58.6 75.3 57.8 75 57.2C74.7 56.6 74.5 56.2 74.4 56C74.4 55.9 74.5 55.8 74.6 55.6C74.7 55.4 74.7 55.1 74.7 54.8C74.7 54.5 74.7 54.2 74.6 53.9C74.5 53.6 74.4 53.2 74.3 52.9C74.2 52.7 74.2 52.6 74.1 52.6C74.1 52.6 74.1 52.6 74.1 52.4C74.1 52.3 74.2 52 74.2 51.7C74.2 51.4 74.2 51.1 74.1 50.9C74 50.7 74 50.5 73.9 50.3C73.8 50.1 73.7 50 73.6 50C73.5 49.9 73.3 49.9 73.2 49.9C73.1 49.9 73 50 72.9 50.1C72.8 50.2 72.7 50.4 72.7 50.5C72.7 50.6 72.7 50.6 72.5 50.5C72.3 50.4 72 50.2 71.6 50C71.2 49.9 70.8 49.8 70.4 49.8C70 49.8 69.7 49.9 69.4 50.2C69.1 50.4 69 50.7 68.9 51.1C68.8 51.5 68.8 51.9 68.8 52.4C68.9 52.9 69 53.4 69.2 53.8C69.4 54.2 69.6 54.6 69.9 54.9C70.2 55.3 70.6 55.6 70.9 55.9C71.2 56.2 71.4 56.3 71.6 56.4C71.8 56.5 72 56.6 72.2 56.6C72.3 56.6 72.3 56.6 72.5 57C72.7 57.4 73 58.2 73.3 58.8C73.6 59.4 73.8 59.9 74.1 60.4C74.3 60.9 74.6 61.3 74.8 61.7C75.1 62.2 75.4 62.6 75.7 63.1C76.1 63.6 76.5 64.1 77 64.7C72.4 65.4 67.4 65.8 62.3 65.8C56.5 65.8 51 65.3 45.9 64.4C46.3 63.9 46.8 63.3 47.2 62.8C47.6 62.3 47.9 61.8 48.1 61.4C48.4 60.9 48.6 60.5 48.8 60.1C49 59.6 49.3 59.2 49.6 58.5C49.9 57.9 50.2 57.1 50.4 56.7C50.6 56.3 50.6 56.3 50.7 56.3C50.8 56.3 51 56.2 51.3 56.1C51.5 56 51.7 55.9 52 55.6C52.3 55.3 52.7 55 53 54.6C53.3 54.2 53.5 53.9 53.7 53.5C53.9 53.1 54 52.6 54.1 52.1C54.2 51.6 54.1 51.2 54 50.8C53.9 50.4 53.7 50.1 53.5 49.9C53.2 49.7 52.9 49.6 52.5 49.5C52.1 49.5 51.7 49.5 51.3 49.7C50.9 49.8 50.6 50.1 50.4 50.2C50.2 50.3 50.2 50.3 50.2 50.2C50.2 50.1 50.1 49.9 50 49.8C49.9 49.7 49.8 49.6 49.7 49.6C49.6 49.6 49.4 49.6 49.3 49.7C49.2 49.8 49.1 49.9 49 50C48.9 50.2 48.8 50.4 48.8 50.6C48.7 50.8 48.7 51.1 48.7 51.4C48.7 51.7 48.7 52 48.8 52.1C48.8 52.2 48.8 52.2 48.8 52.3C48.8 52.3 48.7 52.4 48.6 52.6C48.5 52.8 48.4 53.2 48.3 53.6C48.2 53.9 48.2 54.2 48.2 54.5C48.2 54.8 48.3 55.1 48.3 55.3C48.4 55.5 48.4 55.6 48.5 55.7C48.6 55.8 48.5 55.8 48.4 55.9C48.3 56.1 48.1 56.5 47.8 57.1C47.5 57.7 47.1 58.5 46.7 59.3C46.3 60.1 45.7 61 45.2 61.8C44.6 62.6 43.7 63.6 43 64.3C37.8 63.3 33.2 61.8 29.2 59.9C29.4 56.2 31.6 52.9 34.3 51.4C30.7 50.5 28 46.7 28 42.1C28 38.9 29.3 36 31.4 34.3C31.1 34.2 30.8 34 30.5 33.9C30.2 33.7 30 33.6 29.7 33.4C26.2 30.6 25.6 25.3 28.4 21C29.2 19.1 31.3 17.3 33.4 16.5Z" fill="black"/>
<path fill-rule="evenodd" clip-rule="evenodd" d="M43.7012 32.9996C43.7012 34.4996 45.4012 35.0996 46.3012 33.9996C46.6012 33.6996 46.6012 33.2996 46.9012 32.8996C48.1012 31.4996 50.8012 31.2996 52.3012 32.7996C52.8012 33.2996 53.2012 34.5996 54.0012 34.5996C56.1012 34.5996 56.3012 32.0996 53.4012 29.9996C52.2012 29.0996 51.4012 28.9996 49.5012 28.8996C48.1012 28.7996 46.8012 29.3996 45.8012 30.0996C45.1012 30.5996 43.7012 31.9996 43.7012 32.9996Z" fill="#000005"/>
<path fill-rule="evenodd" clip-rule="evenodd" d="M67.7012 32.9992C67.7012 34.4992 69.3012 35.0992 70.3012 33.9992C70.5012 33.6992 70.7012 33.2992 71.0012 32.8992C72.1012 31.3992 74.9012 31.1992 76.4012 32.7992C76.8012 33.1992 77.5012 34.5992 78.1012 34.5992C80.0012 34.5992 80.1012 32.8992 78.8012 31.1992C77.5012 29.4992 75.8012 28.9992 73.6012 28.8992C70.3012 28.6992 67.7012 31.6992 67.7012 32.9992Z" fill="#000005"/>
<path fill-rule="evenodd" clip-rule="evenodd" d="M58.5 37.8998C58.5 41.7998 61.7 43.1998 63.8 40.8998C64.1 40.4998 64.3 40.2998 64.5 39.7998C65.5 36.7998 63.6 34.2998 61.7 34.2998C59.9 34.2998 58.5 36.0998 58.5 37.8998Z" fill="#000005"/>
<path fill-rule="evenodd" clip-rule="evenodd" d="M41.8008 37.7996C41.8008 40.9996 46.4008 40.6996 46.4008 38.2996C46.4008 36.4996 46.0008 35.5996 43.9008 35.5996C42.8008 35.5996 41.8008 36.6996 41.8008 37.7996Z" fill="#FAC18A"/>
<path fill-rule="evenodd" clip-rule="evenodd" d="M76.9004 37.5993C76.9004 41.0993 81.5004 40.7993 81.5004 37.7993C81.5004 35.4993 78.8004 34.9993 77.7004 36.1993C77.3004 36.4993 76.9004 36.9993 76.9004 37.5993Z" fill="#FAC18A"/>
</g>
<defs>
<clipPath id="clip0">
<rect width="123.3" height="114.4" fill="white"/>
</clipPath>
</defs>
</svg>
